<svg xmlns="http://www.w3.org/2000/svg" version="1.1" xmlns:xlink="http://www.w3.org/1999/xlink" xmlns:svgjs="http://svgjs.dev/svgjs" width="1500" height="935" viewBox="0 0 1500 935"><g transform="matrix(1,0,0,1,-0.9090909090909918,183.54947184394553)"><svg viewBox="0 0 396 247" data-background-color="#333366" preserveAspectRatio="xMidYMid meet" height="935" width="1500" xmlns="http://www.w3.org/2000/svg" xmlns:xlink="http://www.w3.org/1999/xlink"><g id="tight-bounds" transform="matrix(1,0,0,1,0.2400000000000091,-0.09999999999999432)"><svg viewBox="0 0 395.52 247.2" height="247.2" width="395.52"><g><svg></svg></g><g><svg viewBox="0 0 395.52 247.2" height="247.2" width="395.52"><g transform="matrix(1,0,0,1,75.54432,71.23192027681662)"><svg viewBox="0 0 244.43135999999998 104.73615944636674" height="104.73615944636674" width="244.43135999999998"><g><svg viewBox="0 0 244.43135999999998 104.73615944636674" height="104.73615944636674" width="244.43135999999998"><g><svg viewBox="0 0 244.43135999999998 104.73615944636674" height="104.73615944636674" width="244.43135999999998"><g><svg viewBox="0 0 244.43135999999998 104.73615944636674" height="104.73615944636674" width="244.43135999999998"><g id="textblocktransform"><svg viewBox="0 0 244.43135999999998 104.73615944636674" height="104.73615944636674" width="244.43135999999998" id="textblock"><g><svg viewBox="0 0 244.43135999999998 104.73615944636674" height="104.73615944636674" width="244.43135999999998"><g transform="matrix(1,0,0,1,0,0)"><svg width="244.43135999999998" viewBox="1.2 -36.15 86.7 37.15" height="104.73615944636674" data-palette-color="#ffff33"><path d="M20.65 1L20.65 1Q11.65 1 6.43-3.58 1.2-8.15 1.2-16.5L1.2-16.5Q1.2-21.6 2.88-25.45 4.55-29.3 7.6-31.6L7.6-31.6Q13.65-36.15 23.55-36.15L23.55-36.15Q29.95-36.15 36.35-34.4L36.35-34.4Q38.8-33.6 38.8-30.45L38.8-30.45Q38.8-26.15 36.1-26.15L36.1-26.15Q35.65-26.15 33.15-26.55 30.65-26.95 29.65-26.95L29.65-26.95Q26.1-26.95 24.18-24.48 22.25-22 22.25-18.57 22.25-15.15 24.05-12.55 25.85-9.95 28.95-9.85L28.95-9.85Q31.05-9.75 36.4-9.75L36.4-9.75Q39-9.75 39.25-7.3L39.25-7.3Q39.4-6.4 39.4-5.48 39.4-4.55 39.25-3.6L39.25-3.6Q38.95-1.8 36.45-0.98 33.95-0.15 29.25 0.43 24.55 1 20.65 1ZM64.3-14.5L64.3-14.5 64.25-8Q64.25-7.55 64.55-7.23 64.85-6.9 65.35-6.9L65.35-6.9Q68.4-6.9 70.37-8.1 72.35-9.3 72.35-11.88 72.35-14.45 70.3-15.45L70.3-15.45Q68.65-16.25 66.7-16.25L66.7-16.25Q66.2-16.25 65.7-16.2L65.7-16.2Q64.3-16.1 64.3-14.5ZM64.25-28.25L64.25-28.25 64.3-24.15Q64.3-23.2 65.45-23.2L65.45-23.2Q70.5-23.2 70.5-26.05L70.5-26.05Q70.5-29.35 66-29.35L66-29.35Q65.7-29.35 65.45-29.35L65.45-29.35Q64.25-29.35 64.25-28.25ZM47.9-34.95L47.9-34.95Q54.1-35.15 63.4-35.15 72.7-35.15 76.27-34.98 79.85-34.8 82.6-32.2 85.35-29.6 85.35-26.2L85.35-26.2Q85.35-22.05 81.75-20.1L81.75-20.1Q81.4-19.9 81.4-19.63 81.4-19.35 81.75-19.25L81.75-19.25Q84.35-18.55 86.12-16.25 87.9-13.95 87.9-10.8L87.9-10.8Q87.9-6.85 84.85-3.65 81.8-0.45 75.5-0.18 69.2 0.1 66.4 0.1 63.6 0.1 47.7-0.05L47.7-0.05Q46.25-0.05 45.35-0.98 44.45-1.9 44.3-3.1L44.3-3.1Q43.9-7.5 43.9-15.93 43.9-24.35 44.25-30.3L44.25-30.3Q44.4-32.75 45.1-33.83 45.8-34.9 47.9-34.95Z" opacity="1" transform="matrix(1,0,0,1,0,0)" fill="#ffff33" class="wordmark-text-0" data-fill-palette-color="primary" id="text-0"></path></svg></g></svg></g></svg></g></svg></g><g></g></svg></g></svg></g></svg></g><g><path d="M102.927 46.506A122.216 122.216 0 0 1 292.593 46.506L283.147 46.506A112.77 112.77 0 0 0 112.373 46.506L102.927 46.506M102.927 200.694A122.216 122.216 0 0 0 292.593 200.694L283.147 200.694A112.77 112.77 0 0 1 112.373 200.694L102.927 200.694" fill="#ffff33" stroke="transparent" data-fill-palette-color="tertiary"></path></g></svg></g><defs></defs></svg><rect width="395.52" height="247.2" fill="none" stroke="none" visibility="hidden"></rect></g></svg></g></svg>