<svg xmlns="http://www.w3.org/2000/svg" viewBox="0 0 48 48" width="48px" height="48px">
  <path fill="#4285F4" d="M24 9.5c-3.9 0-7.4 1.6-10 4.1L6.7 6.3C11.1 2.3 17.2 0 24 0c6.8 0 12.9 2.3 17.3 6.3l-7.3 7.3c-2.6-2.5-6.1-4.1-10-4.1z"/>
  <path fill="#34A853" d="M9.5 24c0-1.7.3-3.3.9-4.8L3.1 13.9C1.1 17.3 0 21.5 0 26c0 4.5 1.1 8.7 3.1 12.1l7.3-7.3c-.6-1.5-.9-3.1-.9-4.8z"/>
  <path fill="#FBBC05" d="M24 38.5c-3.9 0-7.4-1.6-10-4.1l-7.3 7.3C11.1 45.7 17.2 48 24 48c6.8 0 12.9-2.3 17.3-6.3l-7.3-7.3c-2.6 2.5-6.1 4.1-10 4.1z"/>
  <path fill="#EA4335" d="M38.5 24c0 1.7-.3 3.3-.9 4.8l7.3 7.3C46.9 34.7 48 30.5 48 26c0-4.5-1.1-8.7-3.1-12.1l-7.3 7.3c.6 1.5.9 3.1.9 4.8z"/>
  <path fill="#4285F4" d="M24 14.5c-5.2 0-9.5 4.3-9.5 9.5s4.3 9.5 9.5 9.5 9.5-4.3 9.5-9.5-4.3-9.5-9.5-9.5z"/>
</svg>
