<svg xmlns="http://www.w3.org/2000/svg" viewBox="0 0 48 48">
  <path fill="#4285F4" d="M24 9.5c3.9 0 7.1 1.3 9.5 3.4l7.1-7.1C35.8 2.1 30.2 0 24 0 14.6 0 6.4 5.4 2.4 13.3l8.3 6.4C12.8 13.1 17.9 9.5 24 9.5z"/>
  <path fill="#34A853" d="M46.1 24.5c0-1.6-.1-3.1-.4-4.5H24v9h12.6c-.5 2.6-2 4.8-4.2 6.3l6.6 5.1c3.9-3.6 6.1-8.9 6.1-15.9z"/>
  <path fill="#FBBC05" d="M12.7 28.2c-1.1-.3-2.1-.8-3-1.4l-8.3 6.4C4.6 39.6 13.6 48 24 48c5.8 0 10.7-1.9 14.2-5.1l-6.6-5.1c-2 1.4-4.5 2.2-7.6 2.2-5.8 0-10.7-3.9-12.5-9.3z"/>
  <path fill="#EA4335" d="M24 48c6.5 0 11.9-2.1 15.8-5.7l-7.1-7.1c-2.4 1.6-5.4 2.5-8.7 2.5-6.6 0-12.2-4.5-14.2-10.5l-8.3 6.4C6.4 42.6 14.6 48 24 48z"/>
  <path fill="none" d="M0 0h48v48H0z"/>
</svg>
